# xmcd
#
# Track frame offsets:
#  151
#  13457
#  29290
#  45138
#  57733
#  81177
#  105812
#  121807
#  133194
#
# Disc length: 2092 seconds
#
# Revision: 0
# Processed by: cddbd v1.4PL0 Copyright (c) Steve Scherf et al.
# Submitted via: AltoMP3_Maker 3.0
#
DISCID=6e082a09
DTITLE=Jimmy Witherspoon - Jimmy Witherspoon - The Blues Collection
DYEAR=1900
DGENRE=
TTITLE0=kansas city
TTITLE1=ain't nobody's business
TTITLE2=gee baby ain't i been good to you?
TTITLE3=nobody knows you
TTITLE4=goin' to chicago
TTITLE5=c.c. rider
TTITLE6=sweet lotus blossom
TTITLE7=trouble in mind
TTITLE8=roll 'em pete
EXTD=
EXTT0=
EXTT1=
EXTT2=
EXTT3=
EXTT4=
EXTT5=
EXTT6=
EXTT7=
EXTT8=
PLAYORDER=
